<svg width="32" height="32" viewBox="0 0 32 32" fill="none" xmlns="http://www.w3.org/2000/svg">
<path fill-rule="evenodd" clip-rule="evenodd" d="M5.71487 20.4265C8.86974 20.4265 11.4277 22.9664 11.4277 26.1C11.4277 29.2317 8.86974 31.7736 5.71487 31.7736C2.55795 31.7736 0 29.2317 0 26.1C0 22.9664 2.55795 20.4265 5.71487 20.4265ZM5.71487 0C8.86974 0 11.4256 2.54189 11.4256 5.67358C11.4256 8.80725 8.86769 11.3472 5.71282 11.3472C2.55795 11.3472 0 8.80725 0 5.67358C0 2.54189 2.55795 0 5.71487 0ZM26.2851 0C29.442 0 32 2.54189 32 5.67358C32 8.80725 29.442 11.3472 26.2851 11.3472C23.1303 11.3472 20.5723 8.80725 20.5723 5.67358C20.5723 2.54189 23.1303 0 26.2851 0Z" fill="#7C5DF5"/>
<path opacity="0.5" d="M26.2852 32C29.4414 32 32 29.4599 32 26.3264C32 23.193 29.4414 20.6528 26.2852 20.6528C23.1289 20.6528 20.5703 23.193 20.5703 26.3264C20.5703 29.4599 23.1289 32 26.2852 32Z" fill="#6531F5"/>
</svg>
