<svg width="146" height="24" viewBox="0 0 146 24" fill="none" xmlns="http://www.w3.org/2000/svg">
<g clip-path="url(#clip0_18_5)">
<path fill-rule="evenodd" clip-rule="evenodd" d="M6.786 14.286C8.324 14.286 9.571 15.565 9.571 17.143C9.571 18.72 8.324 20 6.786 20C5.247 20 4 18.72 4 17.143C4 15.565 5.247 14.286 6.786 14.286ZM6.786 4.00003C8.324 4.00003 9.57 5.28003 9.57 6.85703C9.57 8.43503 8.323 9.71403 6.785 9.71403C5.247 9.71403 4 8.43503 4 6.85703C4 5.28003 5.247 4.00003 6.786 4.00003ZM16.814 4.00003C18.353 4.00003 19.6 5.28003 19.6 6.85703C19.6 8.43503 18.353 9.71403 16.814 9.71403C15.276 9.71403 14.029 8.43503 14.029 6.85703C14.029 5.28003 15.276 4.00003 16.814 4.00003Z" fill="#7C5DF5"/>
<path opacity="0.5" d="M16.814 20.114C18.3527 20.114 19.6 18.8349 19.6 17.257C19.6 15.6792 18.3527 14.4 16.814 14.4C15.2754 14.4 14.028 15.6792 14.028 17.257C14.028 18.8349 15.2754 20.114 16.814 20.114Z" fill="#6531F5"/>
<path d="M32.238 20.22C30.9327 20.22 29.8253 19.9413 28.916 19.384C28.0067 18.812 27.31 18.0713 26.826 17.162C26.3567 16.238 26.122 15.2407 26.122 14.17C26.122 13.0993 26.3567 12.1093 26.826 11.2C27.31 10.276 28.0067 9.53533 28.916 8.978C29.8253 8.406 30.9327 8.12 32.238 8.12C33.5433 8.12 34.6507 8.406 35.56 8.978C36.4693 9.53533 37.1587 10.276 37.628 11.2C38.112 12.1093 38.354 13.0993 38.354 14.17C38.354 15.2407 38.112 16.238 37.628 17.162C37.1587 18.0713 36.4693 18.812 35.56 19.384C34.6507 19.9413 33.5433 20.22 32.238 20.22ZM32.238 17.492C32.8247 17.492 33.316 17.338 33.712 17.03C34.1227 16.722 34.438 16.3187 34.658 15.82C34.878 15.3067 34.988 14.7567 34.988 14.17C34.988 13.5687 34.878 13.0187 34.658 12.52C34.438 12.0213 34.1227 11.618 33.712 11.31C33.316 11.002 32.8247 10.848 32.238 10.848C31.6513 10.848 31.1527 11.002 30.742 11.31C30.3313 11.618 30.016 12.0213 29.796 12.52C29.5907 13.0187 29.488 13.5687 29.488 14.17C29.488 14.7567 29.5907 15.3067 29.796 15.82C30.016 16.3187 30.3313 16.722 30.742 17.03C31.1527 17.338 31.6513 17.492 32.238 17.492ZM40.7565 20V8.34H44.0785V10.034H44.1885C44.3205 9.726 44.5038 9.42533 44.7385 9.132C44.9731 8.83867 45.2958 8.59667 45.7065 8.406C46.1171 8.21533 46.6451 8.12 47.2905 8.12C47.6131 8.12 47.8698 8.142 48.0605 8.186C48.2511 8.21533 48.3465 8.23 48.3465 8.23V11.53C48.3465 11.53 48.2365 11.508 48.0165 11.464C47.8111 11.42 47.5398 11.398 47.2025 11.398C46.1611 11.398 45.3838 11.684 44.8705 12.256C44.3571 12.8133 44.1005 13.73 44.1005 15.006V20H40.7565ZM55.678 24.664C54.5926 24.664 53.698 24.532 52.994 24.268C52.3046 24.004 51.7546 23.6667 51.344 23.256C50.9333 22.86 50.6326 22.464 50.442 22.068C50.2513 21.672 50.1266 21.3347 50.068 21.056C50.024 20.792 50.002 20.66 50.002 20.66H53.258C53.258 20.66 53.28 20.726 53.324 20.858C53.3826 21.0047 53.4926 21.166 53.654 21.342C53.8153 21.5327 54.05 21.694 54.358 21.826C54.6806 21.9727 55.106 22.046 55.634 22.046C56.5433 22.046 57.2106 21.7893 57.636 21.276C58.076 20.7627 58.296 20.088 58.296 19.252V18.02H58.142C57.9953 18.2547 57.7753 18.5113 57.482 18.79C57.1886 19.0687 56.8146 19.3033 56.36 19.494C55.9053 19.6847 55.3553 19.78 54.71 19.78C53.8446 19.78 53.0893 19.6187 52.444 19.296C51.7986 18.9587 51.256 18.5113 50.816 17.954C50.3906 17.3967 50.068 16.7733 49.848 16.084C49.6426 15.3947 49.54 14.6833 49.54 13.95C49.54 13.2313 49.6426 12.5273 49.848 11.838C50.068 11.134 50.3906 10.5033 50.816 9.946C51.256 9.38867 51.7986 8.94867 52.444 8.626C53.0893 8.28867 53.8446 8.12 54.71 8.12C55.3553 8.12 55.9053 8.22267 56.36 8.428C56.8146 8.61867 57.1886 8.85333 57.482 9.132C57.79 9.396 58.01 9.65267 58.142 9.902H58.296V8.34H61.64V19.252C61.64 20.22 61.4273 21.1147 61.002 21.936C60.5766 22.7573 59.924 23.4173 59.044 23.916C58.164 24.4147 57.042 24.664 55.678 24.664ZM55.634 17.14C56.25 17.14 56.756 16.986 57.152 16.678C57.5626 16.37 57.8706 15.974 58.076 15.49C58.2813 14.9913 58.384 14.478 58.384 13.95C58.384 13.4073 58.2813 12.894 58.076 12.41C57.8706 11.926 57.5626 11.53 57.152 11.222C56.756 10.914 56.25 10.76 55.634 10.76C55.0326 10.76 54.5266 10.914 54.116 11.222C53.72 11.53 53.4193 11.926 53.214 12.41C53.0086 12.894 52.906 13.4073 52.906 13.95C52.906 14.478 53.0086 14.9913 53.214 15.49C53.4193 15.974 53.72 16.37 54.116 16.678C54.5266 16.986 55.0326 17.14 55.634 17.14ZM68.996 8.12C69.744 8.12 70.36 8.24467 70.844 8.494C71.328 8.72867 71.6947 8.98533 71.944 9.264C72.208 9.54267 72.3694 9.73333 72.428 9.836H72.604V8.34H75.948V20H72.604V18.504H72.428C72.3694 18.6067 72.208 18.7973 71.944 19.076C71.6947 19.3547 71.328 19.6187 70.844 19.868C70.36 20.1027 69.744 20.22 68.996 20.22C68.1307 20.22 67.3754 20.0513 66.73 19.714C66.0994 19.362 65.5714 18.9 65.146 18.328C64.7207 17.7413 64.398 17.0887 64.178 16.37C63.9727 15.6513 63.87 14.918 63.87 14.17C63.87 13.422 63.9727 12.6887 64.178 11.97C64.398 11.2513 64.7207 10.606 65.146 10.034C65.5714 9.44733 66.0994 8.98533 66.73 8.648C67.3754 8.296 68.1307 8.12 68.996 8.12ZM69.964 10.826C69.3627 10.826 68.8567 10.9947 68.446 11.332C68.05 11.6547 67.7494 12.0727 67.544 12.586C67.3534 13.0993 67.258 13.6273 67.258 14.17C67.258 14.7127 67.3534 15.2407 67.544 15.754C67.7494 16.2673 68.05 16.6927 68.446 17.03C68.8567 17.3527 69.3627 17.514 69.964 17.514C70.5654 17.514 71.064 17.3527 71.46 17.03C71.8707 16.6927 72.1714 16.2673 72.362 15.754C72.5674 15.2407 72.67 14.7127 72.67 14.17C72.67 13.6273 72.5674 13.0993 72.362 12.586C72.1714 12.0727 71.8707 11.6547 71.46 11.332C71.064 10.9947 70.5654 10.826 69.964 10.826ZM78.1965 20V17.712L84.0485 10.958H78.4165V8.34H88.0525V10.628L82.2005 17.382H88.0525V20H78.1965ZM91.9572 6.756C91.3705 6.756 90.8938 6.57267 90.5272 6.206C90.1605 5.82467 89.9772 5.37733 89.9772 4.864C89.9772 4.32133 90.1605 3.86667 90.5272 3.5C90.8938 3.11867 91.3705 2.928 91.9572 2.928C92.5145 2.928 92.9838 3.11867 93.3652 3.5C93.7465 3.86667 93.9372 4.32133 93.9372 4.864C93.9372 5.37733 93.7465 5.82467 93.3652 6.206C92.9838 6.57267 92.5145 6.756 91.9572 6.756ZM90.2852 20V8.34H93.6292V20H90.2852ZM96.4869 20V8.34H99.8309V10.012H99.9409C100.073 9.77733 100.264 9.51333 100.513 9.22C100.777 8.92667 101.122 8.67 101.547 8.45C101.987 8.23 102.544 8.12 103.219 8.12C104.128 8.12 104.869 8.33267 105.441 8.758C106.013 9.16867 106.431 9.704 106.695 10.364C106.959 11.0093 107.091 11.6913 107.091 12.41V20H103.747V12.982C103.747 12.4247 103.593 11.9333 103.285 11.508C102.992 11.0827 102.515 10.87 101.855 10.87C101.356 10.87 100.96 10.9873 100.667 11.222C100.374 11.4567 100.161 11.7573 100.029 12.124C99.8969 12.4907 99.8309 12.8793 99.8309 13.29V20H96.4869ZM115.314 20.22C114.288 20.22 113.4 20.0513 112.652 19.714C111.904 19.362 111.288 18.9 110.804 18.328C110.32 17.7413 109.954 17.0887 109.704 16.37C109.47 15.6513 109.352 14.9107 109.352 14.148C109.352 13.4147 109.462 12.696 109.682 11.992C109.917 11.2733 110.269 10.6207 110.738 10.034C111.222 9.44733 111.831 8.98533 112.564 8.648C113.312 8.296 114.192 8.12 115.204 8.12C116.275 8.12 117.221 8.35467 118.042 8.824C118.878 9.29333 119.531 9.99 120 10.914C120.47 11.8233 120.704 12.9307 120.704 14.236V15.05H112.718C112.762 15.754 113.004 16.3627 113.444 16.876C113.899 17.3893 114.522 17.646 115.314 17.646C115.769 17.646 116.136 17.58 116.414 17.448C116.708 17.3013 116.935 17.14 117.096 16.964C117.258 16.7733 117.368 16.6047 117.426 16.458C117.485 16.3113 117.514 16.238 117.514 16.238H120.594C120.594 16.238 120.558 16.3773 120.484 16.656C120.426 16.92 120.294 17.25 120.088 17.646C119.883 18.042 119.582 18.438 119.186 18.834C118.805 19.23 118.299 19.56 117.668 19.824C117.038 20.088 116.253 20.22 115.314 20.22ZM112.718 13.026H117.492C117.448 12.2193 117.206 11.618 116.766 11.222C116.326 10.826 115.784 10.628 115.138 10.628C114.493 10.628 113.943 10.8407 113.488 11.266C113.034 11.6767 112.777 12.2633 112.718 13.026Z" fill="#2C2933"/>
</g>
<defs>
<clipPath id="clip0_18_5">
<rect width="146" height="24" fill="white"/>
</clipPath>
</defs>
</svg>
